<svg height="496pt" viewBox="0 0 496 496" width="496pt" xmlns="http://www.w3.org/2000/svg"><path d="m352 336c8.824219 0 16 7.175781 16 16h16c0-14.863281-10.238281-27.289062-24-30.863281v-17.136719h-16v16h-24v32c0 17.648438 14.351562 32 32 32 8.824219 0 16 7.175781 16 16v16h-16c-8.824219 0-16-7.175781-16-16h-16c0 14.863281 10.238281 27.289062 24 30.863281v17.136719h16v-16h24v-32c0-17.648438-14.351562-32-32-32-8.824219 0-16-7.175781-16-16v-16zm0 0"/><path d="m496 68.6875-68.6875-68.6875h-315.3125v192.265625c-23.574219 1.335937-44.496094 14.839844-55.160156 36.160156l-.839844 1.6875v37.199219l2.34375 2.34375c19.128906 19.128906 29.65625 44.550781 29.65625 71.601562v42.742188h-8c-19.3125 0-35.472656 13.769531-39.191406 32h-.808594c-22.054688 0-40 17.945312-40 40v40h240v-32h31.792969c19.703125 19.753906 46.925781 32 76.96875 32h6.484375c30.042968 0 57.265625-12.246094 76.96875-32h63.785156zm-64-41.375 36.6875 36.6875h-36.6875zm-360 233.441406v-26.792968c8.761719-16.066407 25.367188-25.960938 43.777344-25.960938h8.445312c18.410156 0 35.015625 9.894531 43.777344 25.960938v26.792968c-20.664062 21.847656-32 50.300782-32 80.492188v42.753906h-32v-42.742188c0-30.203124-11.335938-58.65625-32-80.503906zm-56 219.246094v-16h176v-16h-174.527344c3.3125-9.289062 12.113282-16 22.527344-16h32v-16h-14.527344c3.3125-9.289062 12.113282-16 22.527344-16h80c10.414062 0 19.214844 6.710938 22.527344 16h-94.527344v16h112c10.414062 0 19.214844 6.710938 22.527344 16h-14.527344v16h16v16zm339.238281 0h-6.484375c-51.144531 0-92.753906-41.609375-92.753906-92.761719 0-16.40625 4.367188-32.566406 12.640625-46.742187l39.953125-68.496094h86.8125l39.960938 68.496094c8.265624 14.167968 12.640624 30.335937 12.640624 46.742187-.007812 51.152344-41.617187 92.761719-92.769531 92.761719zm40.480469-224h-87.4375l-42.527344-63.792969c-1.144531-1.71875-1.753906-3.71875-1.753906-5.78125 0-5.753906 4.671875-10.425781 10.425781-10.425781h5.574219c3.855469 0 9.40625 12.105469 12.726562 19.335938 6.160157 13.441406 13.152344 28.664062 27.273438 28.664062 14.230469 0 19.480469-12.023438 23.3125-20.800781 3.664062-8.398438 5.429688-11.199219 8.648438-11.199219 3.230468 0 5 2.800781 8.6875 11.207031 3.847656 8.777344 9.121093 20.792969 23.351562 20.792969 14.144531 0 21.121094-15.230469 27.273438-28.664062 3.3125-7.230469 8.855468-19.335938 12.726562-19.335938h5.574219c5.753906 0 10.425781 4.671875 10.425781 10.425781 0 2.0625-.609375 4.0625-1.753906 5.78125zm49.6875 192c11.738281-17.359375 18.59375-38.273438 18.59375-60.761719 0-19.230469-5.128906-38.183593-14.816406-54.804687l-39.757813-68.152344 42.140625-63.210938c2.898438-4.351562 4.433594-9.421874 4.433594-14.644531 0-14.578125-11.847656-26.425781-26.425781-26.425781h-5.574219c-14.144531 0-21.121094 15.230469-27.273438 28.664062-3.3125 7.230469-8.855468 19.335938-12.726562 19.335938-3.230469 0-5.007812-2.800781-8.695312-11.214844-3.839844-8.769531-9.113282-20.785156-23.34375-20.785156-14.242188 0-19.488282 12.023438-23.320313 20.800781-3.65625 8.398438-5.425781 11.199219-8.640625 11.199219-3.855469 0-9.40625-12.105469-12.726562-19.335938-6.160157-13.441406-13.152344-28.664062-27.273438-28.664062h-5.574219c-14.578125 0-26.425781 11.847656-26.425781 26.425781 0 5.222657 1.535156 10.292969 4.441406 14.652344l42.132813 63.210937-39.757813 68.152344c-9.6875 16.613282-14.816406 35.566406-14.816406 54.796875 0 22.488281 6.855469 43.402344 18.59375 60.761719h-19.402344c-3.71875-18.230469-19.871094-32-39.191406-32h-.808594c-3.71875-18.230469-19.871094-32-39.191406-32h-8v-42.742188c0-27.050781 10.527344-52.472656 29.65625-71.601562l2.34375-2.34375v-37.199219l-.839844-1.6875c-10.65625-21.320312-31.574218-34.824219-55.160156-36.160156v-176.265625h288v64h64v368zm0 0"/><path d="m288 32h112v16h-112zm0 0"/><path d="m288 64h16v16h-16zm0 0"/><path d="m320 64h80v16h-80zm0 0"/><path d="m168 112h80c13.230469 0 24-10.769531 24-24v-32c0-13.230469-10.769531-24-24-24h-80c-13.230469 0-24 10.769531-24 24v32c0 13.230469 10.769531 24 24 24zm-8-56c0-4.40625 3.59375-8 8-8h80c4.40625 0 8 3.59375 8 8v32c0 4.40625-3.59375 8-8 8h-80c-4.40625 0-8-3.59375-8-8zm0 0"/><path d="m288 96h176v16h-176zm0 0"/><path d="m144 128h288v16h-288zm0 0"/><path d="m448 128h16v16h-16zm0 0"/><path d="m144 160h88v16h-88zm0 0"/></svg>